<?xml version="1.0" ?><!DOCTYPE svg  PUBLIC '-//W3C//DTD SVG 1.1//EN'  'http://www.w3.org/Graphics/SVG/1.1/DTD/svg11.dtd'><svg id="Layer_1" style="enable-background:new 0 0 76 76;" version="1.1" viewBox="0 0 76 76" xml:space="preserve" xmlns="http://www.w3.org/2000/svg" xmlns:xlink="http://www.w3.org/1999/xlink"><style type="text/css">
	.st0{fill:#2A445D;}
	.st1{fill:#37546B;}
	.st2{fill:#213B51;}
</style><g><path class="st1" d="M73.2,69.3l-22.8-11L50.3,8.6c0-1.2,1.2-1.9,2.3-1.4l21.6,10.4c0.5,0.3,0.9,0.8,0.9,1.4v49.1   C75,69.1,74,69.7,73.2,69.3z"/><path class="st0" d="M50.4,58.3L25.8,46.5L49.5,7.4c0.4-0.7,1.3-1,2-0.6l21.9,10.5c0.8,0.4,1.1,1.4,0.7,2.2L50.4,58.3z"/><path class="st1" d="M50.4,58.3L25.8,46.5L3.1,9.6c-0.6-1,0.5-2.2,1.6-1.7L25.8,18L50.4,58.3z"/><path class="st0" d="M24,69.3L1.7,58.6C1.3,58.4,1,57.9,1,57.4V8.1C1,7.2,1.9,6.6,2.7,7l23,11.1v50.1C25.8,69.1,24.8,69.7,24,69.3z   "/></g></svg>